<?xml version="1.0" encoding="utf-8"?>
<!-- Generator: Adobe Illustrator 16.0.0, SVG Export Plug-In . SVG Version: 6.00 Build 0)  -->
<!DOCTYPE svg PUBLIC "-//W3C//DTD SVG 1.1//EN" "http://www.w3.org/Graphics/SVG/1.1/DTD/svg11.dtd">
<svg version="1.1" id="Capa_1" xmlns="http://www.w3.org/2000/svg" xmlns:xlink="http://www.w3.org/1999/xlink" x="0px" y="0px"
	 width="494px" height="80px" viewBox="0 0 494 80" enable-background="new 0 0 494 80" xml:space="preserve">
<rect x="35" y="14" fill="none" width="585" height="71"/>
<g enable-background="new    ">
	<path fill="#FFFFFF" d="M57.104,38.118h18.792v22.464c-2.016,1.682-4.428,2.905-7.236,3.673c-2.808,0.767-5.58,1.151-8.316,1.151
		c-3.216,0-6.204-0.504-8.964-1.512c-2.761-1.008-5.148-2.58-7.164-4.716c-2.016-2.136-3.6-4.86-4.752-8.172
		c-1.152-3.312-1.728-7.248-1.728-11.809c0-4.752,0.684-8.795,2.052-12.132c1.368-3.336,3.168-6.048,5.4-8.136
		s4.74-3.601,7.524-4.536c2.783-0.937,5.616-1.404,8.496-1.404s5.411,0.216,7.596,0.648c2.184,0.432,3.924,0.889,5.22,1.368
		l-2.016,8.279c-1.2-0.479-2.544-0.852-4.032-1.115c-1.488-0.264-3.384-0.396-5.688-0.396c-2.064,0-3.96,0.312-5.688,0.936
		c-1.728,0.625-3.229,1.646-4.5,3.061c-1.272,1.416-2.257,3.229-2.952,5.436c-0.696,2.209-1.044,4.896-1.044,8.064
		c0,3.024,0.335,5.628,1.008,7.812c0.671,2.186,1.607,3.985,2.808,5.4c1.199,1.416,2.604,2.46,4.212,3.132
		c1.608,0.673,3.323,1.008,5.148,1.008c1.247,0,2.471-0.155,3.672-0.468c1.199-0.312,2.207-0.779,3.024-1.404v-9.504l-10.872-1.151
		V38.118z"/>
	<path fill="#FFFFFF" d="M83.167,13.998c1.008-0.144,2.148-0.263,3.42-0.359c1.271-0.096,2.58-0.168,3.924-0.216
		c1.343-0.048,2.651-0.084,3.924-0.108c1.271-0.023,2.412-0.036,3.42-0.036c4.464,0,8.28,0.624,11.448,1.872
		c3.168,1.249,5.735,3,7.704,5.256c1.967,2.257,3.407,4.944,4.32,8.064c0.911,3.12,1.368,6.552,1.368,10.296
		c0,3.408-0.432,6.696-1.296,9.864c-0.864,3.168-2.304,5.976-4.32,8.424c-2.016,2.447-4.669,4.416-7.956,5.903
		c-3.289,1.487-7.356,2.232-12.204,2.232c-0.768,0-1.789-0.024-3.06-0.072c-1.272-0.048-2.592-0.107-3.96-0.18
		s-2.676-0.144-3.924-0.216c-1.249-0.072-2.185-0.156-2.808-0.252V13.998z M98.647,22.062c-1.056,0-2.124,0.024-3.204,0.072
		s-1.884,0.12-2.412,0.216v33.768c0.191,0.049,0.516,0.085,0.972,0.108c0.456,0.024,0.947,0.048,1.476,0.072
		c0.528,0.024,1.032,0.048,1.512,0.071c0.479,0.025,0.839,0.036,1.08,0.036c2.783,0,5.1-0.491,6.948-1.476
		c1.847-0.983,3.312-2.292,4.392-3.924s1.836-3.516,2.268-5.652c0.432-2.136,0.648-4.331,0.648-6.588
		c0-1.968-0.192-3.948-0.576-5.94c-0.385-1.991-1.092-3.779-2.124-5.363c-1.033-1.584-2.437-2.881-4.212-3.889
		C103.639,22.566,101.384,22.062,98.647,22.062z"/>
	<path fill="#FFFFFF" d="M161.646,64.398H129.75v-50.4h9.864v41.616h22.032V64.398z"/>
	<path fill="#FFFFFF" d="M173.599,42.15l0.936,8.928h0.288l1.008-9.071l8.784-28.009h6.48l8.64,28.152l1.008,8.928h0.288
		l1.102-9.071l6.243-28.009h9.864l-13.896,50.761h-6.624l-9-28.009l-1.224-7.703h-0.36l-1.224,7.775l-8.928,27.937h-6.984
		l-13.824-50.761h10.728L173.599,42.15z"/>
	<path fill="#FFFFFF" d="M222.559,13.998h29.88v8.784h-20.016v11.736h18.216v8.784h-18.216v12.312h20.376v8.784h-30.24V13.998z"/>
	<path fill="#FFFFFF" d="M294.054,25.734c0,1.249-0.155,2.496-0.466,3.744c-0.311,1.249-0.823,2.389-1.539,3.42
		c-0.715,1.033-1.646,1.944-2.791,2.736c-1.145,0.792-2.529,1.38-4.151,1.764v0.432c1.433,0.241,2.794,0.648,4.083,1.225
		s2.412,1.368,3.367,2.376s1.708,2.231,2.257,3.672c0.549,1.439,0.824,3.145,0.824,5.112c0,2.592-0.552,4.836-1.655,6.731
		c-1.105,1.896-2.581,3.445-4.429,4.645c-1.849,1.2-3.948,2.088-6.3,2.664c-2.353,0.575-4.776,0.863-7.271,0.863
		c-0.817,0-1.861,0-3.133,0c-1.272,0-2.641-0.036-4.104-0.107c-1.465-0.072-2.952-0.181-4.464-0.324
		c-1.513-0.145-2.893-0.36-4.141-0.648v-49.68c0.911-0.144,1.956-0.288,3.132-0.432c1.176-0.145,2.436-0.264,3.78-0.36
		c1.344-0.096,2.724-0.168,4.14-0.216s2.82-0.072,4.213-0.072c2.351,0,4.644,0.18,6.876,0.54c2.231,0.36,4.223,0.997,5.976,1.908
		c1.752,0.912,3.156,2.185,4.212,3.815C293.525,21.175,294.054,23.239,294.054,25.734z M272.958,35.166
		c0.672,0,1.451-0.023,2.34-0.07c0.888-0.048,1.62-0.119,2.196-0.214c1.823-0.569,3.395-1.424,4.716-2.565
		c1.319-1.14,1.979-2.636,1.979-4.488c0-1.235-0.24-2.256-0.72-3.063c-0.48-0.808-1.116-1.449-1.908-1.924s-1.691-0.807-2.699-0.997
		c-1.009-0.189-2.064-0.285-3.169-0.285c-1.248,0-2.4,0.024-3.455,0.072c-1.057,0.047-1.872,0.118-2.448,0.212v13.323H272.958z
		 M276.081,56.839c1.178,0,2.32-0.143,3.428-0.428c1.106-0.285,2.086-0.725,2.934-1.318c0.849-0.595,1.531-1.343,2.05-2.246
		c0.518-0.902,0.777-1.972,0.777-3.207c0-1.568-0.307-2.804-0.919-3.706c-0.613-0.902-1.414-1.603-2.404-2.103
		c-0.989-0.499-2.097-0.82-3.321-0.963c-1.226-0.142-2.451-0.214-3.675-0.214h-5.16v13.757c0.235,0.096,0.612,0.166,1.131,0.214
		c0.517,0.047,1.07,0.083,1.66,0.106c0.59,0.024,1.201,0.049,1.838,0.072S275.609,56.839,276.081,56.839z"/>
	<path fill="#FFFFFF" d="M336.821,62.335c-1.537,1.096-3.492,1.881-5.868,2.357c-2.376,0.476-4.812,0.714-7.309,0.714
		c-3.023,0-5.893-0.468-8.604-1.404c-2.713-0.936-5.101-2.447-7.164-4.535c-2.064-2.088-3.708-4.8-4.932-8.137
		c-1.225-3.335-1.836-7.38-1.836-12.132c0-4.943,0.684-9.083,2.052-12.42c1.368-3.336,3.144-6.023,5.328-8.063
		c2.184-2.04,4.619-3.504,7.308-4.393c2.688-0.888,5.375-1.332,8.064-1.332c2.88,0,5.315,0.192,7.308,0.576
		c1.991,0.385,3.636,0.841,4.933,1.368l-1.944,8.352c-1.104-0.527-2.412-0.911-3.924-1.151c-1.513-0.24-3.349-0.36-5.509-0.36
		c-3.984,0-7.188,1.42-9.611,4.257c-2.425,2.839-3.637,7.239-3.637,13.203c0,2.598,0.288,4.967,0.864,7.106
		c0.576,2.142,1.451,3.97,2.628,5.483c1.176,1.516,2.64,2.694,4.393,3.536c1.751,0.842,3.779,1.262,6.084,1.262
		c2.16,0,3.983-0.216,5.472-0.647c1.487-0.433,2.783-0.983,3.888-1.656L336.821,62.335z"/>
	<path fill="#FFFFFF" d="M364.613,53.238h-15.48l-3.815,11.16h-9.864l18.144-50.76h7.272l18.144,50.76h-10.368L364.613,53.238z
		 M351.653,45.318h10.8l-3.744-11.231l-1.512-7.921h-0.36l-1.512,7.992L351.653,45.318z"/>
	<path fill="#FFFFFF" d="M422.429,38.263l1.08-10.008h-0.433l-3.096,8.063L409.253,55.11h-3.168L394.78,36.246l-3.168-7.991h-0.359
		l1.439,9.936v26.208h-9.359v-50.4h9l13.464,23.04l2.376,5.761h0.288l2.16-5.904l12.744-22.896h8.928v50.4h-9.864V38.263z"/>
	<path fill="#FFFFFF" d="M440.932,14.502c2.017-0.383,4.236-0.684,6.66-0.899c2.423-0.216,4.835-0.324,7.236-0.324
		c2.495,0,5.004,0.205,7.523,0.612c2.521,0.408,4.788,1.224,6.805,2.448c2.016,1.224,3.659,2.928,4.932,5.111
		c1.271,2.185,1.908,5.029,1.908,8.532c0,3.168-0.553,5.845-1.656,8.028c-1.104,2.185-2.568,3.972-4.393,5.363
		c-1.824,1.394-3.899,2.401-6.228,3.024c-2.329,0.624-4.741,0.936-7.236,0.936c-0.24,0-0.624,0-1.151,0
		c-0.529,0-1.08-0.011-1.656-0.035s-1.141-0.06-1.692-0.108c-0.552-0.047-0.948-0.096-1.188-0.144v17.352h-9.864V14.502z
		 M455.62,21.774c-0.961,0-1.872,0.036-2.736,0.108c-0.864,0.071-1.561,0.156-2.088,0.252v16.344
		c0.191,0.048,0.479,0.097,0.864,0.144c0.383,0.049,0.792,0.085,1.224,0.108c0.432,0.024,0.852,0.036,1.26,0.036
		c0.407,0,0.708,0,0.9,0c1.296,0,2.579-0.119,3.852-0.36c1.271-0.239,2.412-0.684,3.42-1.332c1.009-0.647,1.812-1.548,2.412-2.7
		c0.6-1.151,0.9-2.664,0.9-4.535c0-1.584-0.288-2.892-0.864-3.925c-0.576-1.031-1.332-1.859-2.268-2.483
		c-0.937-0.623-2.005-1.056-3.204-1.296C458.092,21.895,456.867,21.774,455.62,21.774z"/>
</g>
<rect x="5" y="9.175" fill="#FE4918" width="18" height="58.825"/>
</svg>
